<?xml version="1.0" encoding="UTF-8"?>
<!DOCTYPE svg PUBLIC "-//W3C//DTD SVG 1.1//EN" "http://www.w3.org/Graphics/SVG/1.1/DTD/svg11.dtd">
<!-- Creator: CorelDRAW X7 -->
<svg xmlns="http://www.w3.org/2000/svg" xml:space="preserve" width="623.485mm" height="151.518mm" version="1.1" style="shape-rendering:geometricPrecision; text-rendering:geometricPrecision; image-rendering:optimizeQuality; fill-rule:evenodd; clip-rule:evenodd"
viewBox="0 0 62349 15152"
 xmlns:xlink="http://www.w3.org/1999/xlink">
 <defs>
  <style type="text/css">
   <![CDATA[
    .fil0 {fill:#E6E6E6}
    .fil1 {fill:white}
    .fil2 {fill:white;fill-rule:nonzero}
   ]]>
  </style>
     <mask id="id0">
  <linearGradient id="id1" gradientUnits="userSpaceOnUse" x1="31398.4" y1="5145.58" x2="31398.4" y2="9556.09">
   <stop offset="0" style="stop-opacity:1; stop-color:white"/>
   <stop offset="1" style="stop-opacity:0; stop-color:white"/>
  </linearGradient>
      <rect style="fill:url(#id1)" x="444" y="-4" width="61909" height="14710"/>
     </mask>
       <mask id="id2">
  <linearGradient id="id3" gradientUnits="userSpaceOnUse" x1="19204.3" y1="1872.05" x2="19204.3" y2="6674.01">
   <stop offset="0" style="stop-opacity:1; stop-color:white"/>
   <stop offset="1" style="stop-opacity:0; stop-color:white"/>
  </linearGradient>
        <rect style="fill:url(#id3)" x="17141" y="1868" width="4127" height="4810"/>
       </mask>
      <mask id="id4">
  <linearGradient id="id5" gradientUnits="userSpaceOnUse" x1="25723.8" y1="1604.32" x2="25723.8" y2="5930.9">
   <stop offset="0" style="stop-opacity:1; stop-color:white"/>
   <stop offset="1" style="stop-opacity:0; stop-color:white"/>
  </linearGradient>
       <rect style="fill:url(#id5)" x="21850" y="1462" width="7747" height="4611"/>
      </mask>
      <mask id="id6">
  <linearGradient id="id7" gradientUnits="userSpaceOnUse" x1="31598.7" y1="1653.01" x2="31598.7" y2="5255.97">
   <stop offset="0" style="stop-opacity:1; stop-color:white"/>
   <stop offset="1" style="stop-opacity:0; stop-color:white"/>
  </linearGradient>
       <rect style="fill:url(#id7)" x="30884" y="1649" width="1430" height="3611"/>
      </mask>
      <mask id="id8">
  <linearGradient id="id9" gradientUnits="userSpaceOnUse" x1="35219" y1="1653.02" x2="35219" y2="5003.7">
   <stop offset="0" style="stop-opacity:1; stop-color:white"/>
   <stop offset="1" style="stop-opacity:0; stop-color:white"/>
  </linearGradient>
       <rect style="fill:url(#id9)" x="34504" y="1649" width="1430" height="3359"/>
      </mask>
      <mask id="id10">
  <linearGradient id="id11" gradientUnits="userSpaceOnUse" x1="39624.3" y1="1653.01" x2="39624.3" y2="4824.69">
   <stop offset="0" style="stop-opacity:1; stop-color:white"/>
   <stop offset="1" style="stop-opacity:0; stop-color:white"/>
  </linearGradient>
       <rect style="fill:url(#id11)" x="37587" y="1649" width="4075" height="3180"/>
      </mask>
      <mask id="id12">
  <linearGradient id="id13" gradientUnits="userSpaceOnUse" x1="44785" y1="1559.96" x2="44785" y2="4496.84">
   <stop offset="0" style="stop-opacity:1; stop-color:white"/>
   <stop offset="1" style="stop-opacity:0; stop-color:white"/>
  </linearGradient>
       <rect style="fill:url(#id13)" x="42680" y="1462" width="4210" height="3133"/>
      </mask>
      <mask id="id14">
  <linearGradient id="id15" gradientUnits="userSpaceOnUse" x1="49701.9" y1="1653.01" x2="49701.9" y2="4482.97">
   <stop offset="0" style="stop-opacity:1; stop-color:white"/>
   <stop offset="1" style="stop-opacity:0; stop-color:white"/>
  </linearGradient>
       <rect style="fill:url(#id15)" x="47639" y="1649" width="4127" height="2838"/>
      </mask>
      <mask id="id16">
  <linearGradient id="id17" gradientUnits="userSpaceOnUse" x1="54301.5" y1="1558.61" x2="54301.5" y2="4427.25">
   <stop offset="0" style="stop-opacity:1; stop-color:white"/>
   <stop offset="1" style="stop-opacity:0; stop-color:white"/>
  </linearGradient>
       <rect style="fill:url(#id17)" x="52442" y="1463" width="3718" height="3060"/>
      </mask>
      <mask id="id18">
  <linearGradient id="id19" gradientUnits="userSpaceOnUse" x1="57853.6" y1="1553.47" x2="57853.6" y2="4308.05">
   <stop offset="0" style="stop-opacity:1; stop-color:white"/>
   <stop offset="1" style="stop-opacity:0; stop-color:white"/>
  </linearGradient>
       <rect style="fill:url(#id19)" x="55865" y="1492" width="3977" height="2878"/>
      </mask>
      <mask id="id20">
  <linearGradient id="id21" gradientUnits="userSpaceOnUse" x1="60893.2" y1="2347.08" x2="60893.2" y2="2845.62">
   <stop offset="0" style="stop-opacity:1; stop-color:white"/>
   <stop offset="1" style="stop-opacity:0; stop-color:white"/>
  </linearGradient>
       <rect style="fill:url(#id21)" x="60637" y="2343" width="513" height="507"/>
      </mask>
      <mask id="id22">
  <linearGradient id="id23" gradientUnits="userSpaceOnUse" x1="59697.5" y1="2256.46" x2="59697.5" y2="2936.24">
   <stop offset="0" style="stop-opacity:1; stop-color:white"/>
   <stop offset="1" style="stop-opacity:0; stop-color:white"/>
  </linearGradient>
       <rect style="fill:url(#id23)" x="59349" y="2252" width="697" height="688"/>
      </mask>
      <mask id="id24">
  <linearGradient id="id25" gradientUnits="userSpaceOnUse" x1="60341.2" y1="2300.5" x2="60341.2" y2="2892.16">
   <stop offset="0" style="stop-opacity:1; stop-color:white"/>
   <stop offset="1" style="stop-opacity:0; stop-color:white"/>
  </linearGradient>
       <rect style="fill:url(#id25)" x="60037" y="2296" width="608" height="600"/>
      </mask>
      <mask id="id26">
  <linearGradient id="id27" gradientUnits="userSpaceOnUse" x1="59697.5" y1="3636.8" x2="59697.5" y2="4316.52">
   <stop offset="0" style="stop-opacity:1; stop-color:white"/>
   <stop offset="1" style="stop-opacity:0; stop-color:white"/>
  </linearGradient>
       <rect style="fill:url(#id27)" x="59349" y="3633" width="697" height="688"/>
      </mask>
      <mask id="id28">
  <linearGradient id="id29" gradientUnits="userSpaceOnUse" x1="60385.8" y1="3636.8" x2="60385.8" y2="4316.52">
   <stop offset="0" style="stop-opacity:1; stop-color:white"/>
   <stop offset="1" style="stop-opacity:0; stop-color:white"/>
  </linearGradient>
       <rect style="fill:url(#id29)" x="60037" y="3633" width="697" height="688"/>
      </mask>
      <mask id="id30">
  <linearGradient id="id31" gradientUnits="userSpaceOnUse" x1="60385.8" y1="4320.89" x2="60385.8" y2="4802.03">
   <stop offset="0" style="stop-opacity:1; stop-color:white"/>
   <stop offset="1" style="stop-opacity:0; stop-color:white"/>
  </linearGradient>
       <rect style="fill:url(#id31)" x="60037" y="4317" width="697" height="490"/>
      </mask>
      <mask id="id32">
  <linearGradient id="id33" gradientUnits="userSpaceOnUse" x1="59697.5" y1="4320.9" x2="59697.5" y2="4759.88">
   <stop offset="0" style="stop-opacity:1; stop-color:white"/>
   <stop offset="1" style="stop-opacity:0; stop-color:white"/>
  </linearGradient>
       <rect style="fill:url(#id33)" x="59349" y="4317" width="697" height="447"/>
      </mask>
      <mask id="id34">
  <linearGradient id="id35" gradientUnits="userSpaceOnUse" x1="58829.7" y1="4320.9" x2="58829.7" y2="4720.72">
   <stop offset="0" style="stop-opacity:1; stop-color:white"/>
   <stop offset="1" style="stop-opacity:0; stop-color:white"/>
  </linearGradient>
       <rect style="fill:url(#id35)" x="58302" y="4317" width="1056" height="408"/>
      </mask>
      <mask id="id36">
  <linearGradient id="id37" gradientUnits="userSpaceOnUse" x1="61313" y1="4320.84" x2="61313" y2="4879.86">
   <stop offset="0" style="stop-opacity:1; stop-color:white"/>
   <stop offset="1" style="stop-opacity:0; stop-color:white"/>
  </linearGradient>
       <rect style="fill:url(#id37)" x="60726" y="4317" width="1174" height="567"/>
      </mask>
 </defs>
 <g id="Layer_x0020_1">
  <metadata id="CorelCorpID_0Corel-Layer"/>
  <g id="_243623688">
   <g>
    <path class="fil0" style="mask:url(#id0)" d="M20353 5846l0 -3234 1359 0 0 -1190 -4119 0 0 1190 1318 0 0 3401 0 2646 1442 0 0 -2813zm-16444 -1689l1998 0 0 2075 -1998 0 0 -2075zm2360 -1458l2124 0 0 3533 -2124 0 0 -3533zm2507 -1322l2004 0 0 4855 -2004 0 0 -4855zm-2520 7493l-2404 0 0 -2156 6995 0 -18 2156 -2251 0 0 5358 -2322 0 0 -5358zm8890 -6777c1,18 1,35 1,53l0 3 0 4775 0 5632c0,1180 -966,2146 -2146,2146l-10407 0c-1180,0 -2146,-966 -2146,-2146l0 -3591 0 -6816 0 -3c0,-18 1,-35 1,-53 28,-1156 982,-2093 2145,-2093l10407 0c1163,0 2117,937 2145,2093zm17612 2617l0 1320c0,415 36,708 108,880 73,173 192,309 360,413 168,102 370,154 605,154 251,0 465,-57 647,-173 181,-114 306,-260 375,-438 69,-176 104,-515 104,-1014l0 -1290 0 -3351 1421 0 0 3264 0 1176c0,750 -42,1269 -126,1559 -85,291 -246,571 -484,841 -237,269 -512,470 -823,600 -310,129 -671,195 -1083,195 -539,0 -1009,-124 -1409,-372 -401,-249 -686,-558 -859,-932 -171,-373 -258,-1002 -258,-1891l0 -837 0 -3603 1422 0 0 3499zm9348 -510l0 1109 -2656 0 0 1960 2656 0 0 1390 -4067 0 0 -4276 0 -3172 4067 0 0 1390 -2656 0 0 1338 2656 0 0 261zm3486 -105l99 85c542,453 870,738 986,856 287,290 491,567 612,831 119,266 180,555 180,868 0,612 -211,1115 -635,1515 -422,397 -973,596 -1654,596 -531,0 -993,-130 -1387,-389 -394,-261 -733,-669 -1013,-1226l1195 -719c359,657 772,986 1239,986 244,0 450,-71 616,-213 166,-142 249,-306 249,-491 0,-168 -63,-337 -189,-507 -124,-167 -401,-427 -828,-774 -694,-565 -1178,-1019 -1452,-1364l0 0 -2 -3 -2 -3 0 0 -2 -2 -3 -3 -4 -6 -2 -2 -2 -3 -2 -2 0 -1 -2 -2 -2 -3 -2 -3 -2 -2 -3 -3 -2 -3 -1 -2 -1 0 -2 -3 -2 -3 -2 -3 -2 -2 -2 -3 -2 -2 -1 -2 -1 -1 -2 -3 -2 -2 -2 -3 -1 -3 -2 -2 -2 -3 -1 -1 -1 -1 -2 -3 -2 -3 -2 -2 -2 -3 -2 -2 -2 -3 0 -1 -1 -2 -4 -5 -2 -2 -4 -5 -1 -3 -1 -1 -10 -14 -2 -3 0 0 -2 -2 -1 -3 -2 -2 -5 -8 -2 -2 0 0 -1 -3 -4 -5 -1 -2 -2 -2 -2 -3 -1 -2c-237,-360 -356,-718 -356,-1076 0,-517 197,-959 589,-1328 394,-369 880,-554 1458,-554 371,0 726,86 1061,257 337,173 700,486 1093,942l-1051 927c-369,-512 -744,-768 -1126,-768 -187,0 -339,51 -456,149 -120,100 -178,213 -178,337 0,125 41,244 126,355l5 6 0 1 6 6 0 1 6 6 1 2 5 6 1 2 5 5 2 3 5 5 3 3 4 5 3 4 4 4 4 4 4 5 4 4 4 4 5 6 3 3 6 6 3 3 6 7 3 3 7 7 2 2 8 9 1 1 9 9 1 1 10 10 0 0 11 10 0 1 10 10 2 1 9 10 2 2 9 9 3 3 9 8 4 4 8 8 4 4 8 8 6 5 7 7 6 6 6 6 8 7 5 5 9 8 5 5 9 8 5 5 10 9 4 4 11 10 3 3 12 12 2 1 14 13 1 1 15 14 0 0 16 14 1 1 15 14 2 1 14 13 3 3 13 12 4 4 13 11 5 5 12 10 6 6 11 10 8 7 10 9 9 7 9 9 10 8 8 8 11 10 7 6 13 11 6 6 14 12 5 5 16 13 4 4 17 15 2 2 19 16 1 1 20 18 1 0 20 18 1 1 20 17 3 2 18 17 4 3 18 15 5 5 17 14 6 6 16 13 8 7 14 12 10 8 13 12 11 9 12 10 13 11 10 9 15 13 9 7 16 14 8 7 17 15 7 5zm5258 -56l0 4620 -1442 0 0 -4618 0 -1429 -1317 0 0 -1401 4118 0 0 1401 -1359 0 0 1427zm-21796 3528l1309 1684 -1705 0 -650 -837c-543,289 -1148,432 -1815,432 -1117,0 -2044,-386 -2782,-1157 -573,-598 -924,-1285 -1052,-2062l0 0 -2 -10 -1 -6 -1 -5 -5 -32 -1 -10 0 0 -2 -11 -3 -21 -1 -11 -1 -5 -1 -5 -5 -42 0 -1 -6 -43 0 -4 -1 -6 -3 -33 -1 -9 0 -1 -1 -11 -3 -33 -1 -3 -2 -29 -1 -11 -1 -8 0 -3 0 -3 -2 -19 0 -11 -1 -10 0 -3 -1 -8 -1 -11 0 -11 -1 -11 0 -8 -1 -3 0 -11 -2 -31 0 -2 0 -2 0 -9 -2 -40 0 -4 -1 -41 0 -4 0 -1 0 -10 -1 -33 0 -6 0 -5 0 -45c0,-711 173,-1366 517,-1961 344,-596 818,-1068 1419,-1419 604,-351 1252,-527 1944,-527 1056,0 1964,380 2721,1142l35 36 0 0 34 35 1 1 33 35 1 2 32 34 2 2 31 35 2 2 30 34 2 3 29 34 3 3 29 34 3 4 27 34 3 4 27 33 4 5 25 33 4 5 11 15 18 23 1 1 24 32 2 3 21 30 5 7 19 26 10 15 16 23 10 15 16 25 11 16 14 21 12 18 13 22 12 19 14 22 10 17 12 20 13 22 12 19 12 22 10 18 12 22 14 24 8 15 14 28 8 14 11 23 12 22 9 18 11 22 10 21 11 23 10 21 8 18 11 23 10 23 8 20 9 21 10 24 8 19 10 23 8 20 8 22 10 25 7 19 8 21 9 25 7 20 8 22 8 25 7 20 7 23 7 20 8 27 6 19 8 25 5 19 8 28 5 19 7 24 5 20 7 27 6 21 5 23 6 23 6 25 5 22 4 21 6 25 5 27 4 18 5 28 4 21 4 23 5 26 3 18 5 33 2 12 5 32 3 22 4 26 3 24 3 23 3 24 3 28 2 18 3 27 2 26 2 24 2 25 2 24 2 27 2 22 2 28 1 23 1 19 1 34 1 11 1 39 0 10 1 41 1 12 0 36 0 4 0 0 0 41c0,1008 -328,1878 -987,2611zm-888 -1145c279,-420 428,-884 443,-1389l0 -1 0 -2 0 -1 0 -1 0 -2 0 -1 0 -1 0 -2 0 -1 0 0 0 -1 0 -2 0 -1 0 -2 0 -1 0 -1 0 -2 0 -1 0 -1 0 -2 0 -1 0 -1 0 -2 0 -1 0 -2 0 -1 0 -1 1 -2 0 0 0 -1 0 -1 0 -2 0 -1 0 -2 0 -1 0 -1 0 -2 0 -1 0 -1 0 -2 0 -1 0 -1 0 -2 0 -1 0 -2 0 -1 0 -1 0 -1 0 -1 0 -1 0 -1 0 -2 0 -1 0 -2 0 -1 0 -1 0 -2 0 -1 0 -1 0 -2 0 -1 0 -1 0 -2 0 -1 0 -2 0 -1 0 -1c0,-704 -237,-1302 -712,-1793 -474,-493 -1048,-738 -1721,-738 -693,0 -1274,240 -1741,719 -468,479 -702,1087 -702,1827l0 9 1 8 0 9 0 8 0 5 0 4 0 8 0 8 0 9 0 8 0 1 1 8 0 25 0 5 1 3 0 9 0 8 1 8 0 8 0 2 0 7 1 8 0 8 1 8 0 6 0 3 2 32 0 1 0 1 0 1 2 22 1 8 0 6 0 2 1 8 2 25 0 2 1 6 1 16 1 8 1 6 0 2 2 16 1 8 1 8 0 2 1 6 1 8 1 8 1 8 1 6 0 1 1 8 1 8 2 16 0 3 1 5 1 8c3,18 6,36 9,54l1 4 0 4c102,582 381,1061 841,1434 461,375 984,562 1570,562 337,0 653,-63 949,-185l-1347 -1734 1705 0 671 864zm30573 -1064c133,0 242,108 242,242 0,134 -109,242 -242,242 -134,0 -243,-108 -243,-242 0,-134 109,-242 243,-242zm1411 -102c188,2 340,155 340,344l0 0c0,-190 154,-344 344,-344 190,0 344,154 344,344 0,190 -154,344 -344,344 -190,0 -344,-154 -344,-344l0 0c0,190 -154,344 -344,344 190,0 344,154 344,344 0,190 -154,344 -344,344l0 0c190,0 344,154 344,345l0 0c0,-191 154,-345 344,-345 190,0 344,154 344,345 0,-191 154,-345 344,-345 190,0 345,154 345,345 0,190 -155,344 -345,344 -190,0 -344,-154 -344,-344 0,190 -154,344 -344,344 -190,0 -344,-154 -344,-344l0 0c0,190 -154,344 -344,344 -145,0 -268,-89 -319,-215 -16,-40 -25,-84 -25,-129l0 0c0,190 -154,344 -345,344 -190,0 -344,-154 -344,-344 0,-191 154,-345 344,-345 191,0 345,154 345,345l0 0c0,-46 8,-90 25,-130 51,-126 174,-215 319,-215l0 0c-190,0 -344,-154 -344,-344l0 0c0,145 -89,268 -215,319 -40,17 -84,25 -130,25l0 0 0 0c-45,0 -89,-9 -129,-25 -103,-41 -181,-131 -206,-241 -6,-25 -9,-51 -9,-78 0,-26 3,-52 9,-77 35,-153 172,-267 335,-267 -190,0 -344,-154 -344,-344 0,-189 152,-342 340,-344 -188,-3 -340,-156 -340,-344 0,-108 -87,-196 -195,-196 -108,0 -195,88 -195,196 0,107 87,195 195,195 108,0 195,-88 195,-195 0,-190 154,-345 344,-345l0 0c172,0 313,-124 340,-288l1 0c2,-14 3,-29 3,-45l0 -1 0 -1 0 0 0 -1 1 0 0 -1 0 -1 0 -2 0 -1 0 -1 0 -1 0 -1 0 0 0 1 0 1 0 1 0 1 0 2 0 1 0 1 0 0 0 1 0 0 0 1 0 1c0,16 1,31 3,45l1 0c27,164 169,288 340,288 157,0 290,-105 331,-249l2 0c6,-26 10,-54 11,-84l0 -1 0 -1 0 -1 0 -1 0 -2 0 -2 0 -1 0 -2 0 0c0,-190 154,-344 344,-344l0 0 0 0c190,0 344,154 344,344l0 -9c4,-101 57,-169 127,-203 34,-18 73,-29 114,-29 40,0 77,10 111,27 70,32 124,98 130,197l0 12c3,-188 156,-339 344,-339l11 0c148,4 246,82 294,185 25,48 40,102 40,159 0,58 -15,112 -39,159 -9,20 -20,39 -33,56l-4 0c-63,79 -160,129 -269,129 -126,0 -237,-68 -297,-170l-1 -2 -1 -2 -2 -3 0 0 -1 -2 -1 -2 -1 -3 -1 0 -1 -2 -1 -3 -1 -2 0 0 -1 -2 -2 -3 -1 -2 0 -1 -1 -2 -1 -2 -1 -3 0 0 -1 -2 -1 -3 -1 -2 -1 -1 0 -2 -1 -2 -1 -3 -1 -1 0 -1 -1 -3 -1 -2 0 -1 -1 -2 -2 -5 0 -1 -1 -2 0 -3 -1 -2 -1 -1 0 -2 -1 -2 -1 -3 0 -1 0 -2 -1 -2 -1 -3 0 -2 -2 -6 0 -2 0 -1 -1 -3 0 -2 -1 -2 0 -1 0 -3 -1 -3 0 -2 0 0 -1 -3 0 -3 0 -2 -1 -1 0 -2 0 -3 -1 -2 0 -1 0 -3 0 -3 0 -2 0 -1 -1 -2 0 -6 0 0 0 -3 0 -3 -1 -2 0 -1 0 -2 0 -3 0 -3 0 3 0 3 0 0 0 3c-4,65 -27,115 -63,152l-3 0c-44,46 -106,74 -175,74 -80,0 -151,-39 -195,-99l-4 0c-25,-36 -41,-81 -42,-136l0 0 0 -3 0 5 0 1 0 1c-1,48 -10,90 -24,127l-4 0c-53,122 -174,207 -316,207 -157,0 -289,-104 -330,-247l-3 -1c-6,-26 -10,-54 -11,-84l0 -2 0 -1 0 -1 0 -1 0 -2 0 -1 0 -2 0 -2 0 0c0,-190 -154,-344 -344,-344l0 0 0 0c-190,0 -344,154 -344,344l0 0c0,-190 -154,-344 -345,-344l0 0 0 0c-189,0 -343,153 -344,342l0 -8c-4,-75 -44,-125 -97,-149 -24,-13 -52,-20 -82,-20 -30,0 -59,7 -83,20 -53,25 -94,76 -96,152l-1 7 0 1 0 0 0 1 0 0c1,98 81,178 180,178 92,0 168,-70 178,-160l0 0 1 -8 0 0 0 -1 0 -1 0 0 0 -1 0 0 0 -1 0 0 0 -1 0 0 0 -1 0 0 0 -1 0 0 0 0 0 0 0 1 0 0 0 1 0 1 0 1 0 0 0 1 0 1 0 0 1 9 0 0c10,181 160,324 343,324l0 0c191,0 345,155 345,345l0 0c0,-190 154,-345 344,-345l0 0 0 0c190,0 344,155 344,345 0,188 -152,341 -340,344zm-4 688c-190,0 -344,-154 -344,-344l0 0c0,190 -154,344 -345,344 191,0 345,154 345,344l0 0c0,-190 154,-344 344,-344zm-344 -344c0,-189 151,-342 339,-344 -188,-3 -339,-156 -339,-344l0 0c0,188 -152,341 -340,344 188,2 340,155 340,344l0 0zm-1063 1032c141,0 263,86 316,208l6 15c14,38 22,79 22,122 0,190 -154,344 -344,344 190,0 344,154 344,344 0,190 -154,344 -344,344 -189,0 -342,-152 -345,-340 -2,188 -155,340 -344,340 -190,0 -344,-154 -344,-344l0 0c0,190 -154,344 -344,344 -190,0 -344,-154 -344,-344l0 -15c8,-183 159,-329 344,-329 95,0 181,38 243,100l4 5c59,61 96,143 97,235 2,-189 156,-340 344,-340 -44,0 -86,-9 -124,-24l-1 0c-128,-50 -219,-175 -219,-320 0,-191 154,-345 344,-345 189,0 342,152 344,340 3,-188 156,-340 345,-340l0 0c-190,0 -345,-154 -345,-344 0,-190 155,-344 345,-344 190,0 344,154 344,344 0,190 -154,344 -344,344l0 0zm0 689c-145,0 -269,-90 -320,-216l-2 -7c-14,-36 -22,-76 -23,-117 0,50 -11,97 -31,139l-3 8c-56,114 -174,193 -310,193 189,0 342,151 344,339 3,-188 156,-339 345,-339zm-517 -1033c96,0 173,77 173,172 0,95 -77,172 -173,172 -95,0 -172,-77 -172,-172 0,-95 77,-172 172,-172zm-761 543c136,0 245,110 245,245 0,135 -109,245 -245,245 -135,0 -245,-110 -245,-245 0,-135 110,-245 245,-245zm245 834l0 -4 0 4 0 0zm1392 -843c43,-100 127,-178 230,-215m259 0c112,40 200,128 240,240m0 259c-39,112 -128,201 -240,240 126,51 215,175 215,319 0,190 -154,344 -345,344l0 0c191,0 345,154 345,344l0 0c0,-190 154,-344 344,-344 189,0 343,153 344,342 1,-153 125,-276 278,-276 154,0 279,124 279,278 0,154 -125,279 -279,279 -153,0 -277,-124 -278,-277 -1,189 -155,342 -344,342 -190,0 -344,-154 -344,-344l0 0c0,190 -154,344 -345,344 -190,0 -344,-154 -344,-344 0,-190 154,-344 344,-344l0 0c-163,0 -300,-114 -335,-266 -27,136 -125,246 -254,291 126,51 215,175 215,319 0,190 -154,344 -344,344 -189,0 -342,-151 -345,-339 -2,188 -155,339 -344,339 -190,0 -344,-154 -344,-344l0 0c0,190 -154,344 -344,344 -107,0 -203,-49 -266,-126 -82,78 -192,126 -314,126 -63,0 -123,-12 -177,-36l0 184c-1078,-20 -1976,-407 -2695,-1159 -739,-773 -1109,-1691 -1109,-2754 0,-303 31,-596 94,-879l4 -18 1 -4 3 -14 4 -17 0 0 4 -18 3 -13 2 -5 4 -18 2 -8 2 -9 5 -18 1 -3 4 -14 4 -17 0 -1 5 -18 4 -12 1 -5 5 -18 2 -7 3 -10 5 -17 1 -3 5 -15 5 -16 0 -1 5 -18 4 -11 2 -6 8 -24 3 -10 6 -18 1 -2 5 -15 5 -15 1 -2 6 -17 3 -11 3 -6 6 -17 2 -7 4 -11 6 -17 1 -2 6 -15 5 -14 1 -3 7 -17 4 -10 2 -7 7 -16 3 -6 4 -11 7 -17 1 -2 6 -15 6 -14 1 -3 7 -17 4 -9 3 -7 8 -17 2 -6 5 -11 7 -16 1 -2 7 -15 6 -14 2 -3 7 -16 5 -10 3 -7 8 -16 2 -5 6 -12 8 -16 0 -1 8 -16 7 -13 1 -3 9 -17 4 -8 4 -8 9 -16 2 -5 6 -12 9 -16 0 0 8 -16 7 -13 2 -3 9 -17 5 -8 4 -8 9 -16 2 -4 7 -12 9 -16c345,-597 818,-1070 1420,-1420 580,-335 1203,-510 1868,-523l0 96c24,-6 50,-10 77,-11l0 0 7 0 1 0 2 0 0 0 2 0 1 0 2 0 1 0 2 0 2 0c123,0 233,58 304,149l6 -11 1 -1 0 0 3 -5 4 -6 3 -4 0 -1 4 -6c42,-58 96,-102 156,-130l6 -3 6 -3 6 -2 1 -1 2 0c48,-21 102,-32 158,-32 53,0 103,10 149,28l1 0 3 1 6 3 3 1 2 1c60,26 114,66 158,121l4 5 4 6 6 7 1 2 7 10 7 -10 1 -1 5 -7 5 -7 4 -5 4 -5 4 -5c43,-50 94,-87 150,-111l6 -2 5 -3 1 0 0 0c48,-19 99,-29 152,-29 54,0 105,10 152,29l2 1 4 1 6 3c63,27 121,70 166,130l4 6 3 5 4 5 3 5 1 0 7 11 3 -3 3 -4 0 -1 3 -3 3 -3 1 -1 2 -3 3 -3 4 -4 3 -3 3 -3 4 -4 3 -3 4 -3c22,-20 45,-36 70,-50l5 -2 4 -2 4 -2 2 -1 3 -1 4 -2 1 -1 4 -1 4 -2 1 0 4 -2 4 -1 1 -1 4 -1 4 -2 1 0 4 -1 5 -2 0 0c33,-10 67,-15 103,-15 36,0 71,5 103,15l1 0 8 3 1 0 8 3 1 1 5 1 3 2 1 0 5 2 3 1 1 1 5 2 3 1 1 1 4 2c34,17 65,39 93,67l4 4 1 1 2 2 3 4 2 2 1 1 3 4 3 3 1 0 3 4 3 4 3 -4 3 -4 0 0 3 -3 3 -4 1 -1 2 -2 3 -4 2 -2 2 -1 3 -4 0 0 10 -10 4 -3c19,-18 40,-32 62,-45l4 -2 1 -1 3 -1 5 -3 1 0 3 -2 4 -2 2 -1 3 -1 4 -2 1 -1 4 -1 4 -2 1 0 4 -2 4 -1 1 -1 8 -3 1 0 9 -3 0 0 9 -2 0 -1c30,-8 62,-12 94,-12 36,0 71,5 103,15l1 0 14 5 3 1 1 1 5 1 3 2 1 0 5 2 3 1 1 1 5 2 4 2 4 2 5 2 4 3c18,9 36,20 52,33l0 1 4 3 7 6 4 3 4 3 3 3 1 1 3 3 3 3 3 3 4 4 1 1 2 2 3 4 2 2 2 1 3 4 2 3 1 0 3 4 3 4 6 -8 3 -3 0 -1 3 -3 3 -3c64,-70 144,-106 226,-112l5 -1 0 0c8,0 17,0 25,0 81,0 156,27 215,74l0 0 6 5c69,55 118,138 125,241l1 8 0 3 0 3 0 12 0 13 0 3 0 2 -1 9c-7,103 -56,185 -125,241l-6 4 0 1c-59,46 -134,74 -215,74 -8,0 -17,0 -25,-1l0 0 -5 0c-82,-7 -162,-42 -226,-112l-3 -3 -3 -3 0 -1 -3 -4 -6 -7 -3 4 -3 3 -1 1 -2 3 -3 4 -2 1 -2 2 -3 4 -2 1 -1 2 -4 3 -3 4 -3 3c-29,27 -61,49 -95,65l-5 2 -4 2 -5 1 -1 1 -3 1 -5 2 -4 2 -5 1 -1 1 -3 1 -5 1 -1 0 -9 3 0 0c-30,9 -61,13 -94,13 -22,0 -44,-2 -65,-6l-1 0c-9,-2 -18,-4 -28,-7l0 0 -8 -2 -1 0 0 -1 -5 -1 -4 -1 -1 -1 -4 -1 -4 -2 -1 0 -4 -2 -5 -2 -4 -1 -9 -4 -3 -2 -2 0 -4 -3c-34,-16 -65,-38 -93,-66l0 0 -3 -4 -2 -2 -2 -1 -3 -4 -2 -2 -1 -1 -3 -4 -3 -3 0 -1 -3 -3 -3 -4c-25,31 -54,57 -87,78 132,40 236,144 276,277l5 -15 2 -3 3 -6c46,-105 130,-167 222,-190 29,-8 60,-13 91,-13 69,0 134,21 187,56 88,54 153,147 157,274l1 15 0 0 0 16c5,145 83,241 184,288 48,26 102,40 160,40 57,0 112,-14 160,-40 101,-47 178,-144 184,-288l0 -16 0 0 0 14c5,126 72,209 160,251 42,22 89,34 139,34 51,0 98,-12 140,-34 88,-42 155,-125 160,-251l0 -14 0 0 0 12c4,106 61,177 136,212 35,18 74,28 116,28 43,0 83,-10 118,-29 74,-35 131,-105 135,-211l0 -12 0 -12c-4,-106 -61,-177 -135,-212 -35,-18 -75,-29 -118,-29 -42,0 -81,11 -116,29 -75,34 -132,105 -136,212l0 12 0 0 0 -15c-5,-126 -72,-209 -160,-251 -42,-22 -89,-34 -140,-34 -50,0 -97,12 -139,34 -88,42 -155,125 -160,251l0 15 0 0 0 -16c-6,-145 -83,-241 -184,-289 -48,-25 -102,-40 -160,-40 -58,0 -113,15 -161,40 -101,48 -178,144 -183,289l0 16 0 0c0,135 -79,252 -192,308 109,44 196,133 236,244l6 -8 0 0 0 0 2 -3 2 -3c42,-51 97,-79 154,-86l4 -1 3 0 0 0c9,-1 18,-2 27,-2 55,0 105,19 146,49l3 3 1 0c50,39 86,98 91,172l1 6 0 2 0 4 0 7 0 6 0 5 0 1 -1 6c-5,75 -41,133 -91,172l-1 0 -3 3c-41,31 -91,49 -146,49 -9,0 -18,-1 -27,-2l0 0 -3 0c-58,-7 -115,-34 -158,-87l-2 -3 -2 -2 0 -1 0 0 -6 -8c-40,110 -125,198 -232,242 111,57 188,173 188,307l0 0 0 16c5,145 82,241 183,288 48,26 103,40 161,40 58,0 112,-14 160,-40 101,-47 178,-143 184,-288l0 -16 0 0 0 16c6,144 83,241 183,288 48,26 103,40 161,40 58,0 113,-14 161,-40 100,-47 178,-143 183,-288l0 -16 0 -16c-5,-145 -83,-241 -184,-289 -48,-25 -102,-39 -160,-39 -58,0 -112,14 -160,39 -101,48 -178,144 -184,289l0 16 0 0 0 -16c-6,-145 -83,-241 -184,-289 -48,-25 -103,-39 -160,-39 -58,0 -112,14 -160,39 -101,48 -179,144 -184,289l0 16 0 0 -1 16c-5,134 -75,229 -169,281 -51,30 -111,47 -175,47 -38,0 -74,-6 -108,-17l-1 -1 -1 0c-100,-31 -186,-107 -221,-232l-4 -16c-1,6 -2,12 -4,18 -35,145 -131,234 -245,272l-4 1c-41,15 -85,23 -130,23 -72,0 -139,-20 -196,-53 -109,-59 -191,-168 -196,-324l0 -15c0,-140 74,-263 184,-332 -78,-46 -139,-116 -174,-200l-6 12c-55,98 -141,152 -233,169 -22,5 -44,7 -68,7 -73,0 -142,-23 -197,-63 -80,-53 -138,-141 -146,-255l0 -9 -1 -4 0 -13c0,-136 78,-253 192,-309 -79,-32 -146,-86 -192,-156 -37,55 -87,101 -145,134l8 3 2 1 2 1 3 1c68,30 108,84 122,143 5,19 8,39 8,59 0,44 -13,85 -35,120 -34,55 -91,95 -169,101l0 0 -8 0 -9 0 -9 0 0 0 -3 0 -5 0c-65,-5 -117,-36 -153,-79l-1 -1 -3 -3c-30,-38 -48,-86 -48,-138l0 -6 1 -3 0 0 0 -3c2,-45 17,-90 50,-129l1 -2 2 -2 2 -1 0 -1 2 -2 1 -2 2 -1 6 -6c-140,-11 -260,-91 -326,-206l-3 4 -3 4 -1 0 -3 4 -3 4c-72,81 -164,121 -256,128l-2 0 -3 0c-8,0 -17,1 -25,1 -87,0 -167,-29 -231,-78l-5 -4 -1 0 -1 -2 -2 1 -25 1 -3 1 -25 2 -3 0 -25 3 -3 0 -25 3 -1 0 -23 2 -4 1 -28 3 -27 4 0 0 -27 4 -2 1 -25 4c-26,4 -52,9 -77,14l-6 1 -15 4 -18 3 -5 2 -20 4 -15 3 -4 1 -15 4 -11 3 -17 4 -9 3 -19 5 -7 1 -21 6 -4 2 -23 7 -3 0 -25 8 0 0 -26 8 -1 1 -24 8 -14 5 -16 5 -20 7 -7 3 -6 2 -19 8 -4 1 -18 7 -18 7 -4 2 -18 8 -4 1 -14 6 -4 2 -18 8 -7 3 -17 7 -6 3 -7 3 -7 4 -16 8 -1 0 -20 10 -3 1 -23 12 -1 0 -24 12 0 1 -23 12 -14 7 -9 5 -4 3 -24 13 -1 1 -17 10 -2 1 -14 8 -7 4 -9 6 -5 3 -14 9 -6 3 -11 7 -13 8 -10 7 -5 3 -14 9 -3 2 -16 11 -6 4 -18 12 -4 3 -19 14 -3 2 -21 15 -1 1 -22 16 0 0 -21 16 -2 2 -2 1 -21 17 -18 14 -5 4 -16 13 -2 3 -14 11 -5 4 -8 7 -4 3 -16 14 -5 5 -18 15 -4 4 -14 13 -6 5 -8 7 -5 5 -13 12 -2 2 -16 15 -4 4 -17 17 -3 3 -19 18 -1 2 -20 20 -21 22 -1 0 -3 3 -12 13 -6 7 -6 6 -12 13 -3 4 -9 9 -12 14 0 0 0 1 -16 17 -5 5 -2 3 -11 14 -11 13 -1 0 -11 13 -3 5 -8 9 -11 14 -1 0 -18 24 -1 1 -2 2 -10 14 -6 8 -5 6 -10 13 -4 5 -7 9 -10 14 -1 2 -9 13 -8 12 -2 2 -10 14 -6 9 -3 5 -13 19 -1 1 -6 9 -9 14 -1 2 -8 13 -9 13 -1 1 -9 15 -6 10 -3 5 -9 15 -3 6 -5 8 -9 15 -1 3 -8 12 -7 14 -1 1 -8 15 -6 11 -2 5 -9 15 -3 6 -5 9 -7 15 -2 3 -6 13 -3 6 -9 17 -9 19 -2 4 -7 16 -1 1 -5 12 -1 3 -7 15 -2 4 -1 3 -9 19 -2 6 0 0 -2 5 -10 23 -2 4 -6 16 -4 8 -3 8 -6 16 -2 5 -4 12 -6 16 0 0 -6 16 -5 13 -1 4 -6 16 -3 9 -3 8 -5 16 -2 5 -4 12c-87,271 -130,565 -130,884 0,823 294,1475 884,1954 418,342 890,528 1421,557 46,-41 107,-67 174,-67 144,0 260,116 260,260l0 0 0 3 0 0c0,71 20,137 53,194 -31,-19 -65,-36 -101,-47 30,-42 47,-93 48,-147m2357 -322c-103,-36 -187,-115 -230,-215 -35,81 -96,148 -173,190 100,54 174,151 197,266 25,-110 103,-200 206,-241zm-719 688c-92,-32 -169,-98 -214,-183 -47,85 -123,151 -215,183 124,51 213,172 214,315 2,-143 91,-264 215,-315zm-688 0c-92,-32 -169,-98 -215,-183 -46,85 -122,151 -215,183 126,51 215,175 215,319l0 0c0,-144 89,-268 215,-319zm-688 0c-24,-8 -47,-19 -69,-31 11,16 20,33 29,51 12,-8 26,-14 40,-20zm-262 -369c0,-181 122,-333 289,-378 -56,-53 -91,-128 -91,-211 0,-161 131,-292 292,-292 83,0 158,35 212,91 44,-165 192,-286 370,-289 -25,-36 -40,-79 -40,-126 0,-121 98,-219 219,-219 47,0 90,15 126,40 4,-213 177,-384 391,-384 189,0 347,135 383,314m0 155c-23,115 -97,212 -197,266 77,42 138,109 173,190m-545 -190c-48,-25 -89,-61 -123,-103 -21,66 -73,118 -139,139 42,33 78,75 103,123 37,-67 92,-122 159,-159zm-158 531c-37,66 -92,122 -159,158 67,36 122,91 159,158 36,-67 91,-122 158,-158 -67,-36 -122,-92 -158,-158zm-668 34c-29,64 -81,115 -145,145 52,35 94,82 124,137 36,-67 92,-122 158,-158 -55,-30 -102,-73 -137,-124zm1386 -2970l0 0 0 1 0 -1 0 0 0 -1 0 0 0 0 0 1m-150 -1726c81,-53 143,-134 171,-229 30,84 92,152 171,191 -88,35 -161,100 -207,181 -33,-58 -79,-107 -135,-143zm-17 702c64,-37 116,-90 152,-154 45,80 117,144 203,179 -89,46 -155,129 -179,228 -21,-106 -86,-197 -176,-253zm-1357 -1393c47,-30 86,-70 117,-117 31,47 71,87 117,117 -46,31 -86,71 -117,117 -31,-46 -70,-86 -117,-117zm614 728c78,-31 145,-86 192,-156 31,47 72,88 119,119 -70,45 -125,111 -157,189 -34,-66 -88,-119 -154,-152zm75 -728c50,-33 92,-77 124,-128 37,48 88,85 145,107 -62,33 -114,81 -153,138 -30,-46 -70,-86 -116,-117zm-1254 -107c30,42 68,79 111,107 -43,29 -80,65 -110,107 -27,-42 -63,-79 -104,-107 41,-29 76,-65 103,-107z"/>
    <path class="fil1" d="M2146 453l10407 0c1180,0 2146,966 2146,2146l0 10407c0,1180 -966,2146 -2146,2146l-10407 0c-1180,0 -2146,-966 -2146,-2146l0 -10407c0,-1180 966,-2146 2146,-2146zm1763 3704l1998 0 0 2075 -1998 0 0 -2075zm2360 -1458l2124 0 0 3533 -2124 0 0 -3533zm2507 -1322l2004 0 0 4855 -2004 0 0 -4855zm-2520 7493l-2404 0 0 -2156 6995 0 -18 2156 -2251 0 0 5358 -2322 0 0 -5358z"/>
   </g>
   <g>
    <path class="fil2" d="M20056 11365l508 0 0 2029 -508 0 0 -216c-99,95 -199,162 -299,203 -100,42 -209,63 -326,63 -263,0 -490,-101 -681,-305 -192,-202 -288,-454 -288,-756 0,-312 93,-568 279,-768 185,-200 410,-300 675,-300 122,0 236,23 343,68 107,46 206,114 297,205l0 -223zm-536 416c-157,0 -289,56 -393,167 -104,111 -156,254 -156,428 0,175 53,319 159,432 106,113 237,170 392,170 160,0 293,-56 398,-167 106,-111 159,-257 159,-437 0,-177 -53,-319 -159,-429 -105,-109 -238,-164 -400,-164z"/>
    <path id="1" class="fil2" d="M24298 11365l508 0 0 209c115,-97 221,-164 314,-202 94,-38 190,-57 288,-57 201,0 373,70 513,210 118,120 177,297 177,530l0 1339 -505 0 0 -887c0,-242 -10,-403 -32,-482 -22,-79 -60,-140 -113,-181 -55,-42 -121,-63 -200,-63 -104,0 -192,35 -266,104 -74,68 -125,164 -154,285 -14,64 -22,201 -22,411l0 813 -508 0 0 -2029z"/>
    <path id="2" class="fil2" d="M31314 11365l509 0 0 2029 -509 0 0 -216c-99,95 -199,162 -299,203 -100,42 -209,63 -326,63 -263,0 -489,-101 -681,-305 -192,-202 -287,-454 -287,-756 0,-312 93,-568 278,-768 185,-200 410,-300 675,-300 122,0 236,23 343,68 107,46 206,114 297,205l0 -223zm-535 416c-158,0 -290,56 -393,167 -105,111 -157,254 -157,428 0,175 53,319 159,432 106,113 237,170 392,170 160,0 293,-56 399,-167 105,-111 158,-257 158,-437 0,-177 -53,-319 -158,-429 -106,-109 -239,-164 -400,-164z"/>
    <polygon id="3" class="fil2" points="35502,10581 36011,10581 36011,13394 35502,13394 "/>
    <polygon id="4" class="fil2" points="39466,11365 39988,11365 40514,12636 41096,11365 41617,11365 40347,14136 39826,14136 40239,13245 "/>
    <polygon id="5" class="fil2" points="45191,10616 45699,10616 45699,11365 46001,11365 46001,11804 45699,11804 45699,13394 45191,13394 45191,11804 44931,11804 44931,11365 45191,11365 "/>
    <path id="6" class="fil2" d="M49698 10532c90,0 166,32 230,97 64,64 96,142 96,233 0,91 -32,168 -95,232 -63,63 -139,95 -227,95 -91,0 -168,-32 -232,-97 -64,-65 -96,-144 -96,-237 0,-90 32,-165 95,-228 63,-63 140,-95 229,-95zm-255 833l508 0 0 2029 -508 0 0 -2029z"/>
    <path id="7" class="fil2" d="M55620 11778l-423 233c-80,-84 -158,-141 -236,-174 -78,-32 -169,-48 -273,-48 -191,0 -345,57 -462,170 -118,113 -176,257 -176,435 0,172 56,312 169,421 114,109 262,163 446,163 227,0 404,-78 532,-233l401 275c-218,283 -525,424 -922,424 -358,0 -637,-106 -839,-317 -202,-210 -303,-457 -303,-740 0,-196 49,-376 147,-541 99,-165 236,-295 412,-389 176,-95 373,-142 590,-142 202,0 383,40 544,121 160,80 292,194 393,342z"/>
    <path id="8" class="fil2" d="M60542 11652l-314 317c-128,-128 -244,-191 -348,-191 -57,0 -101,12 -134,36 -32,24 -48,54 -48,90 0,27 10,52 30,75 21,23 72,54 153,94l186 93c196,96 331,195 404,295 73,101 110,218 110,353 0,180 -67,330 -199,450 -133,120 -310,180 -533,180 -296,0 -533,-115 -709,-347l314 -341c60,69 130,126 211,169 80,42 151,64 214,64 67,0 121,-16 162,-48 42,-33 62,-70 62,-112 0,-78 -74,-155 -222,-228l-172 -86c-328,-165 -493,-372 -493,-620 0,-159 62,-296 186,-410 123,-113 281,-170 474,-170 131,0 255,29 372,87 115,58 214,142 294,250z"/>
    <g>
     <g>
      <polygon class="fil2" points="17145,1872 21263,1872 21263,3272 19904,3272 19904,9320 18463,9320 18463,3272 17145,3272 "/>
      <path class="fil1" style="mask:url(#id2)" d="M19904 6507l0 -3235 1359 0 0 -1400 -4118 0 0 1400 1318 0 0 3402c433,-51 915,-107 1441,-167z"/>
     </g>
     <path class="fil1" style="mask:url(#id4)" d="M22372 3413c-344,595 -517,1250 -517,1961 0,239 18,471 55,695 453,-48 926,-97 1419,-146 -28,-165 -43,-338 -43,-520 0,-740 234,-1349 702,-1828 467,-478 1048,-719 1741,-719 673,0 1247,246 1720,739 476,491 713,1089 713,1792 0,30 -1,59 -2,88 468,-40 946,-79 1433,-118 -9,-1079 -388,-1995 -1137,-2748 -758,-762 -1665,-1143 -2722,-1143 -691,0 -1340,177 -1943,528 -602,351 -1075,823 -1419,1419z"/>
     <path class="fil1" style="mask:url(#id6)" d="M30888 1653l0 3603c467,-35 941,-70 1421,-104l0 -3499 -1421 0z"/>
     <path class="fil1" style="mask:url(#id8)" d="M34508 1653l0 3351c469,-30 943,-59 1422,-87l0 -3264 -1422 0z"/>
     <path class="fil1" style="mask:url(#id10)" d="M37591 1653l0 3172c1327,-70 2685,-132 4066,-183l0 -261 -2655 0 0 -1338 2655 0 0 -1390 -4066 0z"/>
     <path class="fil1" style="mask:url(#id12)" d="M43274 2021c-393,368 -590,811 -590,1328 0,358 120,716 357,1075 34,53 74,108 121,167 656,-21 1317,-39 1982,-54 -520,-442 -834,-732 -943,-872 -85,-110 -127,-230 -127,-354 0,-124 59,-237 178,-337 118,-99 270,-149 457,-149 382,0 757,256 1125,768l1052 -927c-393,-456 -756,-769 -1093,-942 -335,-171 -690,-258 -1062,-258 -577,0 -1063,185 -1457,555z"/>
     <path class="fil1" style="mask:url(#id14)" d="M47643 1653l0 1400 1317 0 0 1430c480,-3 961,-4 1442,-3l0 -1427 1359 0 0 -1400 -4118 0z"/>
     <path class="fil1" style="mask:url(#id16)" d="M54289 1990c-602,349 -1076,823 -1420,1420 -197,343 -338,704 -422,1085 489,6 978,14 1467,24 115,-357 305,-671 572,-944 421,-432 932,-670 1533,-712 -85,-66 -144,-169 -144,-298 0,-128 64,-242 162,-311 -282,-193 -185,-616 119,-691l0 -96c-664,13 -1287,187 -1867,523z"/>
     <path class="fil1" style="mask:url(#id18)" d="M56156 1563c-304,75 -401,498 -119,691 -98,69 -162,183 -162,311 0,129 59,232 144,298 153,120 394,120 537,-62 66,115 186,196 326,206 -141,138 -44,380 155,380 246,0 306,-345 76,-429 58,-33 108,-79 145,-135 46,70 113,125 192,157 -114,56 -192,173 -192,308 0,361 488,476 651,157 34,84 96,154 174,200 -111,69 -184,192 -184,332 0,469 682,535 775,78 92,394 679,329 679,-78 0,-134 -76,-250 -187,-307 107,-44 192,-133 231,-242 136,192 441,97 441,-140 0,-236 -306,-331 -441,-139 -40,-111 -126,-200 -236,-244 114,-56 192,-173 192,-309 0,-383 -537,-476 -667,-117 -40,-133 -144,-238 -276,-278 33,-20 62,-47 86,-77 139,174 405,174 544,0 202,255 618,112 618,-216 0,-328 -416,-471 -618,-215 -139,-175 -405,-175 -544,-1 -138,-174 -403,-174 -543,0 -158,-256 -529,-262 -695,-11 -168,-255 -547,-244 -701,20 -70,-91 -180,-150 -304,-150 -34,0 -66,4 -97,12zm2359 1379c81,-52 142,-133 171,-228 30,84 92,152 171,191 -88,35 -161,99 -207,181 -33,-58 -79,-107 -135,-144zm-17 703c63,-37 116,-90 152,-154 45,80 117,144 203,179 -89,45 -156,129 -179,228 -22,-107 -87,-197 -176,-253zm-1357 -1393c46,-31 86,-70 117,-117 31,47 71,86 117,117 -46,31 -86,71 -117,117 -31,-46 -71,-86 -117,-117zm613 728c79,-32 146,-87 192,-157 32,48 73,88 120,119 -70,46 -125,112 -157,190 -34,-66 -88,-120 -155,-152zm75 -728c50,-33 93,-77 124,-128 38,47 88,85 146,107 -62,33 -114,80 -153,138 -30,-46 -70,-86 -117,-117zm-1253 -107c30,42 67,79 111,107 -43,29 -80,65 -110,107 -27,-43 -63,-79 -104,-108 41,-28 76,-64 103,-106z"/>
     <path class="fil1" style="mask:url(#id20)" d="M61146 2596c0,-332 -505,-332 -505,0 0,333 505,333 505,0z"/>
     <path class="fil1" style="mask:url(#id22)" d="M59353 2596c0,454 689,454 689,0 0,-453 -689,-453 -689,0z"/>
     <path class="fil1" style="mask:url(#id24)" d="M60042 2596c0,395 599,395 599,0 0,-394 -599,-394 -599,0z"/>
     <path class="fil1" style="mask:url(#id26)" d="M60042 3977c0,-453 -689,-453 -689,0 0,453 689,453 689,0z"/>
     <path class="fil1" style="mask:url(#id28)" d="M60730 3977c0,-453 -688,-454 -688,0 0,453 688,453 688,0z"/>
     <path class="fil1" style="mask:url(#id30)" d="M60730 4665c0,-190 -154,-344 -344,-344 -190,0 -344,154 -344,344 0,35 4,67 11,96 218,13 435,27 652,41 16,-40 25,-85 25,-137z"/>
     <path class="fil1" style="mask:url(#id32)" d="M60042 4665c0,-190 -154,-344 -344,-344 -191,0 -345,154 -345,344 0,20 2,38 4,56 225,13 449,25 673,39 8,-29 12,-61 12,-95z"/>
     <path class="fil1" style="mask:url(#id34)" d="M59353 4665c0,-190 -154,-344 -344,-344 -189,0 -343,153 -344,342 -3,-235 -359,-233 -359,2 0,1 0,1 0,2 120,6 239,12 358,18 1,-6 1,-12 1,-18 0,6 0,12 1,18 228,11 456,23 684,36 2,-18 3,-37 3,-56z"/>
     <path class="fil1" style="mask:url(#id36)" d="M61212 4660c-7,-314 -482,-309 -482,5 0,58 16,105 42,141 126,9 252,17 377,26 37,-39 61,-92 63,-161 1,61 18,119 47,168 190,13 380,27 570,41 145,-199 55,-559 -273,-559 -188,0 -341,151 -344,339z"/>
     <path class="fil2" d="M28606 8025l1309 1684 -1705 0 -650 -837c-543,289 -1148,433 -1815,433 -1117,0 -2044,-386 -2782,-1157 -738,-771 -1108,-1691 -1108,-2758 0,-710 173,-1365 517,-1960 344,-597 817,-1069 1419,-1420 603,-351 1252,-527 1943,-527 1057,0 1964,380 2722,1143 759,762 1137,1692 1137,2789 0,1007 -328,1877 -987,2610zm-889 -1144c296,-445 445,-937 445,-1477 0,-703 -237,-1302 -713,-1793 -473,-492 -1047,-738 -1720,-738 -693,0 -1274,240 -1741,719 -468,479 -702,1088 -702,1828 0,823 294,1474 884,1953 461,376 983,562 1570,562 337,0 653,-62 949,-185l-1347 -1734 1705 0 670 865z"/>
     <polygon class="fil2" points="47643,1670 51761,1670 51761,3070 50402,3070 50402,9118 48960,9118 48960,3070 47643,3070 "/>
     <path class="fil2" d="M46886 2683l-1052 927c-368,-512 -743,-768 -1125,-768 -187,0 -339,50 -457,149 -119,100 -178,212 -178,337 0,124 42,244 127,354 115,149 463,467 1042,956 541,453 870,738 986,856 287,291 491,567 612,832 119,266 179,555 179,868 0,612 -210,1115 -634,1514 -422,398 -973,597 -1655,597 -530,0 -992,-130 -1386,-389 -394,-262 -733,-670 -1013,-1226l1194 -719c360,657 773,985 1240,985 244,0 449,-71 615,-213 166,-141 249,-306 249,-491 0,-167 -62,-337 -188,-506 -125,-168 -401,-427 -828,-775 -813,-660 -1337,-1170 -1573,-1530 -237,-359 -357,-717 -357,-1075 0,-517 197,-960 590,-1328 394,-370 880,-555 1457,-555 372,0 727,86 1062,258 337,173 700,485 1093,942z"/>
     <polygon class="fil2" points="37591,1670 41657,1670 41657,3060 39002,3060 39002,4398 41657,4398 41657,5767 39002,5767 39002,7728 41657,7728 41657,9118 37591,9118 "/>
     <path class="fil2" d="M30888 1670l1421 0 0 4818c0,415 37,709 109,880 73,173 192,310 360,413 168,102 370,154 605,154 251,0 465,-57 647,-173 181,-114 306,-259 375,-437 69,-176 103,-515 103,-1015l0 -4640 1422 0 0 4440c0,750 -42,1269 -127,1559 -84,290 -245,571 -484,840 -237,270 -511,471 -823,600 -309,130 -670,196 -1082,196 -539,0 -1010,-125 -1409,-372 -401,-249 -686,-559 -859,-932 -171,-373 -258,-1003 -258,-1891l0 -4440z"/>
     <g>
      <path class="fil2" d="M56156 9304c-1078,-21 -1976,-408 -2694,-1160 -740,-772 -1110,-1690 -1110,-2754 0,-710 173,-1365 517,-1964 344,-596 818,-1070 1420,-1419 580,-336 1203,-510 1867,-523l0 1390c-660,13 -1217,253 -1670,718 -469,479 -702,1088 -702,1828 0,823 294,1474 883,1953 437,357 931,544 1489,561l0 1370z"/>
      <path class="fil1" d="M56263 7864c143,0 260,116 260,259 0,144 -117,260 -260,260 -144,0 -260,-116 -260,-260 0,-143 116,-259 260,-259z"/>
      <path class="fil1" d="M56334 8251c250,0 453,202 453,452 0,250 -203,453 -453,453 -250,0 -453,-203 -453,-453 0,-250 203,-452 453,-452z"/>
      <path class="fil1" d="M56914 8468c190,0 344,154 344,344 0,190 -154,344 -344,344 -190,0 -344,-154 -344,-344 0,-190 154,-344 344,-344z"/>
      <path class="fil1" d="M57602 8468c190,0 344,154 344,344 0,190 -154,344 -344,344 -190,0 -344,-154 -344,-344 0,-190 154,-344 344,-344z"/>
      <path class="fil1" d="M58290 8468c191,0 345,154 345,344 0,190 -154,344 -345,344 -190,0 -344,-154 -344,-344 0,-190 154,-344 344,-344z"/>
      <path class="fil1" d="M57113 2974c84,31 145,113 145,208 0,123 -99,222 -221,222 -123,0 -222,-99 -222,-222 0,-62 26,-118 67,-158 -140,-11 -260,-91 -326,-206 -70,88 -178,145 -299,145 -211,0 -382,-170 -382,-381 0,-129 64,-243 162,-312 -102,-69 -168,-185 -168,-317 0,-213 172,-385 384,-385 124,0 234,59 304,149 72,-122 205,-204 357,-204 144,0 270,73 344,185 74,-112 200,-185 344,-185 149,0 279,78 351,196 64,-80 162,-131 272,-131 110,0 208,51 271,131 64,-80 162,-131 272,-131 110,0 208,51 272,131 63,-80 161,-131 271,-131 192,0 347,155 347,347 0,191 -155,347 -347,347 -110,0 -208,-52 -271,-132 -64,80 -162,132 -272,132 -110,0 -208,-52 -272,-132 -24,31 -53,57 -86,78 132,40 236,145 276,277 48,-132 174,-226 323,-226 190,0 344,154 344,344l0 0c0,-190 154,-344 345,-344 190,0 344,154 344,344l0 0c0,-165 134,-299 299,-299 166,0 300,134 300,299l0 0c0,-139 113,-252 252,-252 140,0 253,113 253,252 0,140 -113,253 -253,253 -139,0 -252,-113 -252,-253l0 0c0,166 -134,300 -300,300 -165,0 -299,-134 -299,-300l0 0c0,190 -154,344 -344,344 -191,0 -345,-154 -345,-344l0 0c0,136 -78,253 -192,309 110,43 196,133 236,244 44,-62 117,-103 199,-103 133,0 242,108 242,242 0,134 -109,242 -242,242 -82,0 -155,-40 -199,-103 -39,110 -124,199 -231,243 111,57 187,173 187,306l0 0c0,-190 154,-344 345,-344 190,0 344,154 344,344l0 0c0,-190 154,-344 344,-344 190,0 344,154 344,344 0,191 -154,345 -344,345 -190,0 -344,-154 -344,-345l0 0c0,191 -154,345 -344,345 -191,0 -345,-154 -345,-345l0 0c0,191 -154,345 -344,345 -163,0 -299,-114 -335,-266 -36,179 -194,313 -384,313 -216,0 -391,-175 -391,-392 0,-140 73,-262 184,-332 -78,-45 -140,-115 -174,-200 -57,112 -173,188 -307,188 -190,0 -344,-154 -344,-344 0,-135 78,-253 192,-309 -79,-31 -146,-86 -192,-156 -37,56 -87,102 -145,134zm4443 1364c190,0 344,154 344,344 0,190 -154,344 -344,344 -188,0 -341,-151 -344,-339 -3,131 -110,236 -241,236 -133,0 -241,-108 -241,-241 0,190 -154,344 -344,344 -190,0 -344,-154 -344,-344l0 0c0,190 -154,344 -344,344 -191,0 -345,-154 -345,-344l0 0c0,190 -154,344 -344,344 -189,0 -343,-153 -344,-342 -1,98 -81,177 -179,177 -99,0 -180,-80 -180,-179 0,-99 81,-180 180,-180 98,0 178,80 179,178 1,-189 155,-342 344,-342l0 0 0 0c190,0 344,154 344,344l0 0c0,-190 154,-344 345,-344l0 0 0 0c190,0 344,154 344,344l0 0c0,-190 154,-344 344,-344l0 0 0 0c190,0 344,154 344,344 0,-133 108,-241 241,-241 131,0 238,105 241,235 3,-187 156,-338 344,-338zm-2870 -1607c-29,95 -90,175 -171,228 56,36 102,86 135,144 46,-82 119,-146 207,-181 -79,-39 -141,-108 -171,-191zm167 956c-86,-36 -158,-99 -203,-180 -36,64 -89,118 -152,154 89,56 154,147 176,254 23,-100 90,-183 179,-228zm-944 -538c32,-78 87,-144 157,-190 -47,-31 -88,-71 -120,-119 -46,70 -113,125 -192,156 67,33 121,87 155,153zm44 -1008c-31,51 -74,95 -124,128 47,31 87,71 117,117 39,-58 91,-106 153,-138 -58,-23 -108,-60 -146,-107zm-578 128c-46,-31 -86,-71 -117,-117 -31,46 -71,86 -117,117 46,31 86,71 117,117 31,-46 71,-86 117,-117zm-688 0c-44,-29 -81,-65 -111,-107 -27,41 -62,78 -103,106 41,29 77,65 104,107 30,-42 67,-78 110,-106z"/>
      <path class="fil1" d="M59009 7779c190,0 344,154 344,344 0,191 -154,345 -344,345 -190,0 -344,-154 -344,-345 0,-190 154,-344 344,-344z"/>
      <path class="fil1" d="M59009 8468c190,0 344,154 344,344 0,190 -154,344 -344,344 -190,0 -344,-154 -344,-344 0,-190 154,-344 344,-344z"/>
      <path class="fil1" d="M59698 8468c190,0 344,154 344,344 0,190 -154,344 -344,344 -191,0 -345,-154 -345,-344 0,-190 154,-344 345,-344z"/>
      <path class="fil1" d="M60320 8533c154,0 278,125 278,279 0,153 -124,278 -278,278 -154,0 -278,-125 -278,-278 0,-154 124,-279 278,-279z"/>
      <path class="fil1" d="M58650 7281c60,-140 198,-237 359,-237 216,0 391,175 391,391 0,216 -175,391 -391,391 -161,0 -299,-97 -359,-236 -35,81 -97,148 -174,189 123,66 206,196 206,344 0,217 -176,392 -392,392 -148,0 -278,-83 -344,-206 -66,123 -195,206 -344,206 -149,0 -278,-83 -344,-206 -66,123 -196,206 -344,206 -216,0 -391,-176 -391,-392 0,-180 122,-332 289,-377 -56,-53 -91,-128 -91,-212 0,-161 131,-292 292,-292 83,0 158,35 211,91 45,-164 193,-286 371,-289 -25,-35 -40,-79 -40,-125 0,-121 98,-219 219,-219 47,0 90,14 125,39 4,-212 178,-383 391,-383 216,0 392,175 392,391 0,149 -83,278 -206,344 77,42 139,108 174,190zm-545 -190c-48,-26 -90,-61 -123,-103 -21,65 -73,117 -139,139 42,33 78,75 103,122 36,-67 92,-122 159,-158zm-159 530c-36,67 -91,122 -158,158 67,36 122,92 158,159 36,-67 92,-123 158,-159 -66,-36 -122,-91 -158,-158zm-667 34c-29,64 -81,116 -145,145 51,35 94,82 124,138 36,-67 91,-123 158,-159 -55,-30 -102,-72 -137,-124z"/>
      <path class="fil1" d="M56914 7779c190,0 344,154 344,344 0,191 -154,345 -344,345 -190,0 -344,-154 -344,-345 0,-190 154,-344 344,-344z"/>
      <path class="fil1" d="M57602 7779c190,0 344,154 344,344 0,191 -154,345 -344,345 -190,0 -344,-154 -344,-345 0,-190 154,-344 344,-344z"/>
      <path class="fil1" d="M58290 7779c191,0 345,154 345,344 0,191 -154,345 -345,345 -190,0 -344,-154 -344,-345 0,-190 154,-344 344,-344z"/>
      <path class="fil1" d="M57013 7289c135,0 245,110 245,245 0,136 -110,245 -245,245 -135,0 -245,-109 -245,-245 0,-135 110,-245 245,-245z"/>
      <path class="fil1" d="M57774 6747c95,0 172,77 172,172 0,95 -77,172 -172,172 -95,0 -172,-77 -172,-172 0,-95 77,-172 172,-172z"/>
      <path class="fil1" d="M57602 7091c190,0 344,154 344,344 0,190 -154,344 -344,344 -190,0 -344,-154 -344,-344 0,-190 154,-344 344,-344z"/>
      <path class="fil1" d="M58290 6403c191,0 345,154 345,344 0,190 -154,344 -345,344 -190,0 -344,-154 -344,-344 0,-190 154,-344 344,-344z"/>
      <path class="fil1" d="M58290 7091c191,0 345,154 345,344 0,190 -154,344 -345,344 -190,0 -344,-154 -344,-344 0,-190 154,-344 344,-344z"/>
      <path class="fil1" d="M59009 7091c190,0 344,154 344,344 0,190 -154,344 -344,344 -190,0 -344,-154 -344,-344 0,-190 154,-344 344,-344z"/>
      <path class="fil1" d="M60386 7091c190,0 344,154 344,344 0,190 -154,344 -344,344 -190,0 -344,-154 -344,-344 0,-190 154,-344 344,-344z"/>
      <path class="fil1" d="M61074 7091c190,0 344,154 344,344 0,190 -154,344 -344,344 -190,0 -344,-154 -344,-344 0,-190 154,-344 344,-344z"/>
      <path class="fil1" d="M60386 5714c190,0 344,154 344,344 0,191 -154,345 -344,345 -190,0 -344,-154 -344,-345 0,-190 154,-344 344,-344z"/>
      <path class="fil1" d="M58470 5175c-108,0 -195,87 -195,195 0,108 87,195 195,195 108,0 195,-87 195,-195 0,-108 -87,-195 -195,-195z"/>
      <path class="fil1" d="M59009 6403c190,0 344,154 344,344 0,190 -154,344 -344,344 -190,0 -344,-154 -344,-344 0,-190 154,-344 344,-344z"/>
      <path class="fil1" d="M59698 6403c190,0 344,154 344,344 0,190 -154,344 -344,344 -191,0 -345,-154 -345,-344 0,-190 154,-344 345,-344z"/>
      <path class="fil1" d="M59698 7091c190,0 344,154 344,344 0,190 -154,344 -344,344 -191,0 -345,-154 -345,-344 0,-190 154,-344 345,-344z"/>
      <path class="fil1" d="M59009 5026c190,0 344,154 344,344 0,190 -154,344 -344,344 -190,0 -344,-154 -344,-344 0,-190 154,-344 344,-344z"/>
      <path class="fil1" d="M59009 5714c190,0 344,154 344,344 0,191 -154,345 -344,345 -190,0 -344,-154 -344,-345 0,-190 154,-344 344,-344z"/>
      <path class="fil1" d="M59698 5026c190,0 344,154 344,344 0,190 -154,344 -344,344 -191,0 -345,-154 -345,-344 0,-190 154,-344 345,-344z"/>
      <path class="fil1" d="M59698 5714c190,0 344,154 344,344 0,191 -154,345 -344,345 -191,0 -345,-154 -345,-345 0,-190 154,-344 345,-344z"/>
      <path class="fil1" d="M58290 5816c134,0 243,109 243,242 0,134 -109,243 -243,243 -133,0 -242,-109 -242,-243 0,-133 109,-242 242,-242z"/>
     </g>
    </g>
   </g>
  </g>
 </g>
</svg>
