<?xml version="1.0" standalone="no"?>
<!DOCTYPE svg PUBLIC "-//W3C//DTD SVG 20010904//EN"
 "http://www.w3.org/TR/2001/REC-SVG-20010904/DTD/svg10.dtd">
<svg version="1.0" xmlns="http://www.w3.org/2000/svg"
 width="6366.000000pt" height="1512.000000pt" viewBox="0 0 6366.000000 1512.000000"
 preserveAspectRatio="xMidYMid meet">

<g transform="translate(0.000000,1512.000000) scale(0.100000,-0.100000)"
fill="#000000" stroke="none">
<path d="M28200 11886 c0 -2 8 -10 18 -17 15 -13 16 -12 3 4 -13 16 -21 21
-21 13z"/>
<path d="M46204 3680 c0 -129 2 -182 3 -117 2 64 2 170 0 235 -1 64 -3 11 -3
-118z"/>
<path d="M62204 3538 l-19 -23 23 19 c21 18 27 26 19 26 -2 0 -12 -10 -23 -22z"/>
<path d="M57079 2073 c-13 -16 -12 -17 4 -4 16 13 21 21 13 21 -2 0 -10 -8
-17 -17z"/>
</g>
</svg>
