<?xml version="1.0" standalone="no"?>
<!DOCTYPE svg PUBLIC "-//W3C//DTD SVG 20010904//EN"
 "http://www.w3.org/TR/2001/REC-SVG-20010904/DTD/svg10.dtd">
<svg version="1.0" xmlns="http://www.w3.org/2000/svg"
 width="6366.000000pt" height="1512.000000pt" viewBox="0 0 6366.000000 1512.000000"
 preserveAspectRatio="xMidYMid meet">
<metadata>
Created by potrace 1.13, written by Peter Selinger 2001-2015
</metadata>
<g transform="translate(0.000000,1512.000000) scale(0.100000,-0.100000)"
fill="#000000" stroke="none">
<path d="M0 7560 l0 -7560 31830 0 31830 0 0 7560 0 7560 -31830 0 -31830 0 0
-7560z m63638 7538 c9 -9 12 -491 12 -2105 0 -1852 -2 -2094 -15 -2099 -20 -8
-20 -68 0 -84 13 -11 15 -620 13 -5404 l-3 -5391 -31804 -3 c-23517 -1 -31807
1 -31817 9 -12 10 -14 1073 -12 6613 l3 6601 23 3 c17 3 22 10 22 35 0 24 -6
35 -23 42 l-22 10 -3 880 c-1 484 0 886 3 893 6 17 63605 18 63623 0z"/>
<path d="M60130 13390 c0 -5 -7 -10 -15 -10 -10 0 -15 -10 -15 -29 0 -48 12
-91 25 -91 7 0 18 -7 25 -15 13 -15 71 -21 84 -8 4 4 25 6 46 4 39 -2 40 -2
40 32 0 23 -6 37 -16 41 -25 10 -74 7 -74 -4 0 -15 -26 -12 -40 5 -9 10 -9 15
-1 15 6 0 11 16 11 35 0 33 -2 35 -35 35 -19 0 -35 -4 -35 -10z"/>
<path d="M58140 12675 c0 -10 -10 -15 -30 -15 -20 0 -30 -5 -30 -15 0 -8 -9
-15 -20 -15 -16 0 -20 -7 -20 -35 0 -33 2 -35 34 -35 21 0 36 6 40 15 3 8 12
15 20 15 7 0 17 7 20 16 3 9 15 14 28 12 19 -2 24 -10 26 -40 3 -36 5 -38 38
-38 32 0 34 2 34 35 0 33 -2 35 -35 35 -34 0 -35 1 -35 40 0 39 -1 40 -35 40
-24 0 -35 -5 -35 -15z"/>
<path d="M60328 11318 c-3 -30 -6 -33 -40 -36 -32 -3 -37 -7 -40 -30 -2 -19
-10 -28 -25 -30 -19 -3 -23 -10 -23 -38 0 -32 2 -34 34 -34 30 0 35 3 38 28 2
19 9 28 26 30 18 3 22 10 22 39 0 39 18 42 35 5 7 -16 18 -22 42 -22 31 0 33
2 33 34 0 18 -7 39 -15 46 -8 7 -15 19 -15 26 0 9 -12 14 -34 14 -32 0 -35 -3
-38 -32z"/>
<path d="M61157 11101 c-2 -11 -15 -21 -28 -23 -16 -2 -25 -11 -27 -27 -2 -13
-12 -26 -23 -28 -14 -4 -19 -14 -19 -39 0 -32 2 -34 35 -34 28 0 35 4 35 20 0
12 10 24 24 29 13 5 26 19 29 30 3 13 13 21 26 21 17 0 21 6 21 35 0 33 -2 35
-34 35 -25 0 -35 -5 -39 -19z"/>
<path d="M62360 10996 c0 -19 4 -38 10 -41 5 -3 17 -23 26 -43 27 -64 30 -67
68 -70 35 -3 36 -2 36 31 0 21 -7 41 -20 52 -11 10 -20 26 -20 35 0 10 -7 23
-15 30 -8 7 -15 19 -15 26 0 9 -12 14 -35 14 -33 0 -35 -2 -35 -34z"/>
<path d="M61720 10690 c0 -11 -7 -23 -15 -26 -9 -4 -15 -19 -15 -36 0 -21 -6
-31 -20 -35 -15 -4 -20 -14 -20 -39 0 -32 2 -34 34 -34 32 0 35 3 38 33 2 24
8 33 26 35 19 3 22 -1 22 -27 0 -29 3 -31 35 -31 33 0 35 2 35 34 0 33 -2 35
-37 38 -27 2 -39 8 -41 21 -2 10 3 17 12 17 12 0 16 10 16 35 0 33 -2 35 -35
35 -29 0 -35 -4 -35 -20z"/>
<path d="M61448 9743 c-13 -3 -18 -14 -18 -38 0 -30 4 -34 33 -40 39 -8 94
-32 102 -45 3 -6 22 -10 41 -10 32 0 34 2 34 35 0 23 -5 35 -14 35 -7 0 -19 7
-26 15 -7 8 -21 15 -31 15 -10 0 -24 9 -31 20 -12 19 -47 24 -90 13z"/>
<path d="M58085 7160 c-4 -16 -11 -32 -16 -35 -15 -10 -11 -75 5 -75 7 0 19
-7 26 -15 7 -8 28 -15 46 -15 32 0 34 2 34 34 0 20 -6 36 -14 39 -10 4 -12 18
-9 51 l6 46 -36 0 c-31 0 -36 -4 -42 -30z"/>
<path d="M61795 6758 c-2 -7 -5 -24 -7 -38 -2 -17 -10 -26 -25 -28 -15 -2 -23
-10 -23 -22 0 -10 -4 -22 -10 -25 -5 -3 -10 -22 -10 -41 0 -32 2 -34 35 -34
31 0 35 3 35 25 0 14 4 25 9 25 6 0 11 14 13 32 2 25 9 34 28 38 20 5 26 13
28 43 3 36 3 37 -33 37 -20 0 -38 -6 -40 -12z"/>
<path d="M46170 3680 l0 -260 35 0 35 0 0 260 0 260 -35 0 -35 0 0 -260z"/>
<path d="M55860 2327 c0 -27 5 -34 33 -45 17 -7 40 -18 49 -23 10 -5 29 -9 42
-9 14 0 28 -4 31 -10 3 -5 22 -10 41 -10 32 0 34 2 34 35 0 31 -3 35 -25 35
-14 0 -33 4 -43 9 -81 41 -108 51 -133 51 -26 0 -29 -3 -29 -33z"/>
<path d="M55160 2316 c0 -19 4 -38 10 -41 5 -3 17 -21 26 -40 11 -24 23 -35
42 -37 23 -3 27 -8 30 -40 3 -36 5 -38 38 -38 32 0 34 2 34 35 0 32 -2 35 -30
35 -28 0 -30 3 -30 37 0 23 -9 48 -25 69 -14 18 -25 37 -25 43 0 6 -16 11 -35
11 -33 0 -35 -2 -35 -34z"/>
</g>
</svg>
